<svg width="200" height="200" viewBox="0 0 200 200" fill="none" xmlns="http://www.w3.org/2000/svg">
<rect width="200" height="200" fill="#E60693"/>
<g clip-path="url(#clip0_19_2)">
<path fill-rule="evenodd" clip-rule="evenodd" d="M55.2264 143.713C55.4032 143.713 55.5797 143.725 55.7547 143.75C56.2196 143.845 56.3305 144.061 56.3569 144.519C56.3833 144.977 56.3886 145.33 56.3886 147.374V149.738C56.3886 150.976 56.3886 152.04 56.3147 152.603C56.2618 152.993 56.1932 153.293 55.9132 153.346C55.7395 153.382 55.5624 153.4 55.3849 153.399C55.2211 153.399 55.163 153.441 55.163 153.509C55.163 153.578 55.2581 153.641 55.443 153.641C56.003 153.641 56.8852 153.604 57.1493 153.604C57.4135 153.604 58.3961 153.641 59.2096 153.641C59.3892 153.641 59.4896 153.604 59.4896 153.509C59.4896 153.415 59.4315 153.399 59.3206 153.399C59.0909 153.393 58.8617 153.375 58.6338 153.346C58.2165 153.293 58.1319 152.993 58.1055 152.603C58.0368 152.04 58.0368 150.976 58.0368 149.728V149.544C58.0368 149.459 58.0791 149.433 58.1478 149.433L59.3628 149.459C59.4097 149.453 59.4573 149.458 59.5016 149.475C59.5459 149.491 59.5853 149.519 59.6164 149.554C59.8013 149.754 60.4405 150.665 61.0005 151.408C61.7876 152.461 62.3159 153.077 62.9234 153.383C63.2373 153.544 63.5848 153.628 63.9377 153.63H64.0275H65.7497C65.8181 153.634 65.8865 153.624 65.9504 153.599C66.3466 153.599 66.8009 153.63 67.1654 153.63C67.3186 153.63 67.4032 153.604 67.4032 153.494C67.4032 153.383 67.3609 153.388 67.1919 153.388H67.0175C66.5843 153.388 66.4576 153.209 66.4576 152.972C66.4808 152.687 66.5503 152.408 66.6636 152.145L67.419 150.228C67.4507 150.144 67.4771 150.118 67.5458 150.118H70.6626C70.693 150.115 70.7232 150.123 70.7482 150.141C70.7733 150.158 70.7916 150.183 70.8 150.212L71.9199 153.067C71.9355 153.095 71.9446 153.126 71.9464 153.157C71.9483 153.189 71.9429 153.221 71.9307 153.25C71.9185 153.28 71.8998 153.306 71.876 153.327C71.8522 153.348 71.8238 153.364 71.7931 153.372C71.6505 153.372 71.5977 153.415 71.5977 153.494C71.5977 153.573 71.7667 153.594 72.0203 153.604C73.1402 153.63 74.1651 153.63 74.6617 153.63C75.1583 153.63 75.3115 153.604 75.3115 153.494C75.3115 153.383 75.2428 153.388 75.1266 153.388C74.9299 153.387 74.7338 153.37 74.5402 153.336C74.2443 153.267 73.8376 153.083 73.304 151.866C72.4112 149.823 70.1713 144.335 69.8332 143.592C69.6959 143.281 69.6061 143.16 69.4846 143.16C69.3631 143.16 69.2574 143.313 69.0936 143.687L65.5753 152.114C65.4656 152.533 65.2318 152.909 64.9044 153.193C64.5391 153.009 64.207 152.765 63.9218 152.472C63.0924 151.634 62.1257 150.439 60.8843 148.933C62.2947 147.832 62.7332 146.91 62.7332 145.92C62.7302 145.559 62.642 145.203 62.476 144.882C62.3099 144.561 62.0705 144.283 61.777 144.071C60.9922 143.633 60.0965 143.432 59.1991 143.492C58.7659 143.492 57.704 143.54 57.2233 143.54C56.9328 143.54 56.0505 143.492 55.3057 143.492C55.0944 143.492 54.9993 143.524 54.9993 143.619C54.9993 143.713 55.0732 143.713 55.2264 143.713ZM69.0514 146.052C69.0514 145.999 69.0936 145.931 69.1306 145.931C69.1676 145.931 69.1887 145.999 69.2046 146.052L70.4619 149.375C70.4619 149.412 70.4619 149.454 70.3932 149.454H67.8152C67.7624 149.454 67.7465 149.412 67.7624 149.364L69.0514 146.052ZM58.0368 144.356C58.0368 144.245 58.0633 144.193 58.1584 144.166C58.4036 144.119 58.6537 144.101 58.9032 144.114C59.7273 144.114 61.0427 144.667 61.0427 146.573C61.0427 147.679 60.6412 148.295 60.2186 148.596C59.9264 148.789 59.5732 148.87 59.2255 148.822C58.869 148.825 58.5137 148.78 58.1689 148.69C58.0738 148.648 58.0474 148.596 58.0474 148.443L58.0368 144.356ZM78.5128 147.4V149.886C78.5128 150.465 78.5603 151.113 78.5603 151.787C78.5861 152.594 78.4717 153.4 78.2222 154.168C77.7441 155.263 76.903 156.161 75.8397 156.711C75.6601 156.817 75.433 156.922 75.1424 157.059C75.0561 157.106 74.9604 157.133 74.8624 157.138C74.8478 157.139 74.8333 157.137 74.8195 157.132C74.8058 157.127 74.7932 157.119 74.7824 157.109C74.7716 157.1 74.7628 157.088 74.7566 157.075C74.7504 157.062 74.7469 157.047 74.7462 157.033C74.7462 156.964 74.8202 156.912 75.0579 156.79C75.3056 156.648 75.5315 156.47 75.7288 156.264C76.7853 155.21 76.7853 153.883 76.7853 151.245V147.4C76.7853 145.357 76.7853 144.977 76.7853 144.545C76.7853 144.114 76.6427 143.871 76.1778 143.777C76.0029 143.752 75.8263 143.739 75.6495 143.74C75.4963 143.74 75.4118 143.708 75.4118 143.619C75.4118 143.529 75.5122 143.492 75.7182 143.492C76.4631 143.492 77.3453 143.54 77.7098 143.54C78.0743 143.54 78.9249 143.492 79.4743 143.492C79.6697 143.492 79.7701 143.524 79.7701 143.619C79.7701 143.713 79.6803 143.74 79.5165 143.74C79.3802 143.742 79.2443 143.755 79.1097 143.777C78.7294 143.845 78.6185 144.071 78.5815 144.545C78.5445 145.019 78.5128 145.341 78.5128 147.4ZM87.4195 153.409C87.2822 153.409 87.2293 153.451 87.2293 153.53C87.2293 153.609 87.3931 153.63 87.6467 153.641C88.7666 153.667 89.7915 153.667 90.2881 153.667C90.7846 153.667 90.9325 153.641 90.9325 153.53C90.9325 153.42 90.8639 153.425 90.7529 153.425C90.5563 153.424 90.3601 153.407 90.1666 153.372C89.8707 153.304 89.4639 153.12 88.9304 151.903C88.0376 149.86 85.7924 144.372 85.4596 143.629C85.317 143.318 85.2325 143.197 85.1057 143.197C84.9789 143.197 84.8838 143.35 84.7148 143.724L81.1964 152.151C80.9165 152.825 80.6682 153.283 80.0131 153.367C79.8969 153.367 79.6961 153.367 79.5746 153.367C79.4531 153.367 79.4109 153.393 79.4109 153.472C79.4109 153.551 79.4901 153.609 79.6697 153.609C80.3987 153.609 81.17 153.573 81.3232 153.573C81.7617 153.573 82.3798 153.609 82.8077 153.609C82.9662 153.609 83.0454 153.583 83.0454 153.472C83.0454 153.362 83.0031 153.367 82.8394 153.367H82.6281C82.1949 153.367 82.0681 153.188 82.0681 152.951C82.0936 152.666 82.165 152.387 82.2794 152.124L83.0348 150.207C83.0348 150.123 83.0929 150.097 83.1616 150.097H86.2837C86.3141 150.094 86.3443 150.102 86.3693 150.12C86.3944 150.137 86.4127 150.162 86.4211 150.191L87.5463 153.046C87.5698 153.075 87.5853 153.109 87.5915 153.146C87.5976 153.183 87.5941 153.22 87.5814 153.255C87.5686 153.29 87.547 153.321 87.5187 153.346C87.4903 153.37 87.4562 153.386 87.4195 153.393V153.409ZM86.0354 149.465H83.4469C83.3888 149.465 83.3782 149.422 83.3888 149.375L84.6778 146.062C84.6778 146.01 84.72 145.941 84.7623 145.941C84.8046 145.941 84.8151 146.01 84.831 146.062L86.0935 149.386C86.1094 149.422 86.0935 149.465 86.0354 149.465ZM95.6342 151.661C95.6342 151.002 95.4282 150.37 94.2607 149.507L93.6215 149.027C92.0789 147.869 91.5454 146.921 91.5454 145.831C91.5454 144.356 92.8343 143.292 94.7784 143.292C95.4077 143.285 96.035 143.363 96.6432 143.524C96.77 143.524 96.8387 143.587 96.8387 143.682C96.8387 143.856 96.7858 144.245 96.7858 145.299C96.7858 145.594 96.7383 145.699 96.6326 145.699C96.527 145.699 96.49 145.62 96.49 145.457C96.4599 145.13 96.333 144.821 96.1255 144.567C95.9417 144.344 95.7072 144.169 95.4416 144.055C95.176 143.942 94.8871 143.893 94.5988 143.913C93.5422 143.913 92.9294 144.488 92.9294 145.299C92.9294 145.915 93.257 146.384 94.4192 147.237L94.8101 147.516C96.49 148.769 97.1028 149.67 97.1028 150.95C97.1093 151.42 96.9911 151.884 96.7601 152.295C96.5291 152.706 96.1936 153.048 95.7874 153.288C95.1102 153.668 94.3396 153.85 93.5634 153.815C92.8651 153.841 92.169 153.723 91.5189 153.467C91.2971 153.367 91.2495 153.304 91.2495 153.009C91.2495 152.266 91.3076 151.455 91.3182 151.245C91.3288 151.034 91.3763 150.897 91.4925 150.897C91.6087 150.897 91.6299 151.018 91.6299 151.124C91.6407 151.356 91.6834 151.587 91.7567 151.808C91.878 152.231 92.1416 152.6 92.5033 152.852C92.865 153.104 93.3027 153.225 93.743 153.193C95.0161 153.193 95.6184 152.377 95.6184 151.661H95.6342ZM104.039 144.24V149.754C104.039 150.992 104.039 152.056 104.108 152.635C104.15 153.009 104.235 153.309 104.636 153.362C104.873 153.393 105.111 153.41 105.349 153.415C105.508 153.415 105.576 153.457 105.576 153.525C105.576 153.594 105.46 153.657 105.307 153.657C104.388 153.657 103.5 153.62 103.109 153.62C102.718 153.62 101.905 153.657 101.34 153.657C101.16 153.657 101.065 153.62 101.065 153.525C101.065 153.43 101.123 153.415 101.292 153.415C101.47 153.416 101.647 153.399 101.82 153.362C102.1 153.309 102.185 153.009 102.222 152.619C102.296 152.056 102.296 150.992 102.296 149.754V144.24L100.183 144.293C99.3691 144.293 99.031 144.387 98.825 144.682C98.7169 144.824 98.6362 144.985 98.5873 145.156C98.5608 145.262 98.5133 145.314 98.4288 145.314C98.3443 145.314 98.3073 145.251 98.3073 145.098C98.3073 144.946 98.5714 143.661 98.5978 143.55C98.6242 143.439 98.6823 143.297 98.7669 143.297C98.9619 143.371 99.1636 143.426 99.3691 143.461C99.7759 143.497 100.309 143.529 100.769 143.529H106.321C106.643 143.526 106.964 143.503 107.283 143.461C107.408 143.43 107.535 143.407 107.663 143.392C107.758 143.392 107.774 143.471 107.774 143.676C107.774 143.882 107.732 144.883 107.732 145.256C107.732 145.388 107.689 145.472 107.605 145.472C107.52 145.472 107.468 145.404 107.452 145.204V145.051C107.425 144.703 107.045 144.324 105.804 144.303L104.039 144.24ZM142.603 153.399L142.756 144.909C142.756 144.161 142.883 143.856 143.285 143.766C143.423 143.737 143.565 143.724 143.707 143.729C143.871 143.729 143.961 143.687 143.961 143.608C143.961 143.529 143.818 143.482 143.633 143.482C142.952 143.482 142.418 143.529 142.265 143.529C141.969 143.529 141.298 143.482 140.569 143.482C140.358 143.482 140.205 143.482 140.205 143.608C140.205 143.734 140.258 143.729 140.432 143.729C140.681 143.717 140.931 143.744 141.172 143.808C141.51 143.94 141.631 144.198 141.647 145.019L141.784 151.06H141.721C141.478 150.85 139.608 148.906 138.636 147.995C136.591 146.041 134.462 143.85 134.293 143.676C134.124 143.503 133.929 143.255 133.765 143.255C133.601 143.255 133.585 143.445 133.585 143.713L133.459 151.682C133.459 152.851 133.39 153.235 133.026 153.346C132.818 153.394 132.605 153.417 132.392 153.415C132.355 153.411 132.318 153.411 132.281 153.415C132.24 153.408 132.199 153.408 132.159 153.415C131.961 153.414 131.763 153.396 131.567 153.362C131.277 153.293 130.87 153.109 130.337 151.892C129.439 149.849 127.199 144.361 126.861 143.619C126.723 143.308 126.639 143.187 126.512 143.187C126.385 143.187 126.29 143.339 126.116 143.713L122.603 152.14C122.323 152.814 122.074 153.272 121.414 153.357C121.303 153.357 121.108 153.357 120.981 153.357C120.939 153.357 120.944 153.388 120.917 153.393C120.864 153.366 120.803 153.353 120.743 153.357C120.505 153.353 120.266 153.335 120.03 153.304C119.607 153.251 119.502 152.951 119.502 152.577C119.433 151.998 119.433 150.934 119.433 149.696V147.4C119.433 145.357 119.433 144.977 119.459 144.545C119.486 144.114 119.602 143.845 119.988 143.777C120.124 143.756 120.262 143.744 120.4 143.74C120.564 143.74 120.648 143.708 120.648 143.619C120.648 143.529 120.553 143.492 120.352 143.492C119.824 143.492 118.926 143.54 118.588 143.54C118.25 143.54 117.33 143.492 116.57 143.492C116.374 143.492 116.279 143.524 116.279 143.619C116.279 143.713 116.364 143.74 116.517 143.74C116.694 143.739 116.87 143.752 117.045 143.777C117.51 143.871 117.621 144.087 117.647 144.545C117.674 145.004 117.679 145.357 117.679 147.4V147.679C117.681 147.691 117.68 147.703 117.676 147.715C117.672 147.726 117.666 147.737 117.658 147.746C117.65 147.755 117.641 147.762 117.63 147.767C117.619 147.772 117.607 147.774 117.595 147.774H112.201C112.189 147.774 112.177 147.772 112.166 147.767C112.155 147.762 112.145 147.755 112.137 147.746C112.129 147.737 112.123 147.726 112.12 147.715C112.116 147.703 112.115 147.691 112.116 147.679V147.4C112.116 145.357 112.116 144.977 112.148 144.545C112.18 144.114 112.285 143.845 112.676 143.777C112.809 143.756 112.943 143.744 113.078 143.74C113.247 143.74 113.331 143.708 113.331 143.619C113.331 143.529 113.236 143.492 113.036 143.492C112.507 143.492 111.609 143.54 111.271 143.54C110.933 143.54 110.014 143.492 109.258 143.492C109.063 143.492 108.963 143.524 108.963 143.619C108.963 143.713 109.047 143.74 109.2 143.74C109.377 143.739 109.554 143.752 109.729 143.777C110.193 143.871 110.304 144.087 110.336 144.545C110.368 145.004 110.336 145.357 110.336 147.4V149.765C110.336 151.002 110.336 152.066 110.267 152.63C110.209 153.02 110.135 153.32 109.861 153.372C109.687 153.409 109.51 153.427 109.332 153.425C109.163 153.425 109.111 153.467 109.111 153.536C109.111 153.604 109.206 153.667 109.39 153.667C109.95 153.667 110.833 153.63 111.155 153.63C111.477 153.63 112.428 153.667 113.337 153.667C113.506 153.667 113.617 153.63 113.617 153.536C113.617 153.441 113.548 153.425 113.395 153.425C113.156 153.421 112.918 153.404 112.682 153.372C112.259 153.32 112.153 153.02 112.153 152.646C112.085 152.066 112.085 151.002 112.085 149.765V148.585C112.083 148.574 112.084 148.562 112.087 148.551C112.091 148.54 112.097 148.53 112.105 148.521C112.114 148.513 112.124 148.507 112.135 148.503C112.146 148.5 112.158 148.499 112.169 148.501H117.521C117.532 148.5 117.543 148.502 117.554 148.506C117.564 148.51 117.574 148.516 117.582 148.524C117.59 148.532 117.596 148.541 117.6 148.552C117.604 148.562 117.606 148.574 117.605 148.585V149.765C117.605 151.002 117.605 152.066 117.536 152.63C117.478 153.02 117.41 153.32 117.124 153.372C116.96 153.408 116.791 153.426 116.623 153.425C116.454 153.425 116.401 153.467 116.401 153.536C116.401 153.604 116.496 153.667 116.691 153.667C117.22 153.667 118.123 153.63 118.445 153.63C118.767 153.63 119.718 153.667 120.627 153.667C120.691 153.669 120.755 153.66 120.817 153.641C120.881 153.663 120.95 153.672 121.018 153.667C121.747 153.667 122.518 153.63 122.671 153.63C123.105 153.63 123.728 153.667 124.156 153.667C124.309 153.667 124.394 153.641 124.394 153.53C124.394 153.42 124.357 153.425 124.187 153.425H123.971C123.543 153.425 123.411 153.246 123.411 153.009C123.436 152.724 123.508 152.445 123.622 152.182L124.383 150.265C124.383 150.181 124.436 150.154 124.504 150.154H127.632C127.662 150.152 127.692 150.16 127.717 150.177C127.742 150.195 127.761 150.22 127.769 150.249L128.889 153.104C128.905 153.131 128.914 153.162 128.916 153.193C128.918 153.225 128.914 153.256 128.902 153.286C128.89 153.315 128.872 153.341 128.849 153.363C128.826 153.384 128.798 153.4 128.768 153.409C128.625 153.409 128.572 153.451 128.572 153.53C128.572 153.609 128.736 153.63 128.989 153.641C130.109 153.667 131.103 153.667 131.631 153.667C131.808 153.676 131.985 153.664 132.159 153.63C132.235 153.659 132.316 153.672 132.397 153.667C133.126 153.667 133.786 153.63 133.913 153.63C134.177 153.63 134.737 153.667 135.646 153.667C135.841 153.667 135.973 153.641 135.973 153.536C135.973 153.43 135.883 153.425 135.73 153.425C135.484 153.432 135.238 153.4 135.001 153.33C134.727 153.241 134.542 152.888 134.515 151.84L134.357 146.189H134.399C134.653 146.447 136.211 148.127 137.732 149.58C139.254 151.034 140.987 152.74 141.869 153.536C141.987 153.687 142.156 153.791 142.344 153.831C142.519 153.815 142.561 153.72 142.561 153.393L142.603 153.399ZM127.421 149.47H124.843C124.79 149.47 124.774 149.428 124.79 149.38L126.079 146.068C126.079 146.015 126.116 145.946 126.163 145.946C126.211 145.946 126.216 146.015 126.232 146.068L127.489 149.391C127.479 149.422 127.463 149.465 127.394 149.465L127.421 149.47ZM68.0107 178.215C67.768 178.212 67.5259 178.19 67.2869 178.147C66.9013 178.068 65.85 177.899 64.4078 176.477C62.8864 174.966 61.1114 172.791 58.8187 170.041C61.4178 168.035 62.2155 166.355 62.2155 164.564C62.2086 163.907 62.0462 163.26 61.7414 162.677C61.4367 162.094 60.9982 161.591 60.4616 161.209C59.0776 160.303 57.3448 160.156 55.7072 160.156C54.9095 160.156 52.9496 160.23 52.0726 160.23C51.5443 160.23 49.912 160.156 48.5437 160.156C48.1581 160.156 47.9785 160.203 47.9785 160.377C47.9785 160.551 48.1317 160.598 48.417 160.598C48.7531 160.591 49.0893 160.615 49.4207 160.672C50.2712 160.841 50.4772 161.236 50.5301 162.062C50.5829 162.889 50.5829 163.537 50.5829 167.25V171.563C50.5829 173.812 50.5829 175.745 50.4508 176.777C50.3504 177.483 50.2184 178.02 49.7059 178.12C49.4001 178.184 49.0885 178.215 48.7762 178.215C48.4698 178.215 48.3641 178.289 48.3641 178.41C48.3641 178.531 48.5437 178.658 48.8924 178.658C49.949 178.658 51.5338 178.584 52.0304 178.584C52.4213 178.584 54.3231 178.658 55.8181 178.658C56.1562 178.658 56.3464 178.584 56.3464 178.41C56.3464 178.236 56.2407 178.215 56.0347 178.215C55.7283 178.215 55.1577 178.168 54.7721 178.12C54.0008 178.02 53.8476 177.483 53.7684 176.777C53.6416 175.724 53.6416 173.812 53.6416 171.537V171.195C53.6416 171.047 53.7208 170.995 53.8476 170.995L56.0875 171.047C56.1721 171.036 56.258 171.046 56.3381 171.075C56.4181 171.105 56.4898 171.153 56.5471 171.216C56.8852 171.585 58.0738 173.249 59.0987 174.597C60.5409 176.477 61.5182 177.625 62.6276 178.194C63.2985 178.537 63.943 178.658 65.3852 178.658H67.8311C68.1375 178.658 68.3224 178.61 68.3224 178.41C68.3224 178.21 68.2167 178.215 68.0107 178.215ZM57.6565 169.457C57.1916 169.773 56.8588 169.873 55.8287 169.873C55.1686 169.883 54.5105 169.8 53.874 169.625C53.6944 169.552 53.6416 169.457 53.6416 169.188V161.746C53.6416 161.552 53.6944 161.451 53.874 161.404C54.3228 161.317 54.7803 161.284 55.237 161.304C56.7531 161.304 59.1779 162.31 59.1779 165.786C59.1779 167.793 58.4331 168.92 57.6565 169.457ZM77.731 159.814C70.0023 159.814 67.0915 165.222 67.0915 169.409C67.1073 173.733 70.0974 179 77.4879 179C84.0333 179 88.1485 174.571 88.1485 168.993C88.1485 163.416 84.1601 159.814 77.7468 159.814H77.731ZM78.5551 177.778C73.6104 177.778 70.6309 173.739 70.6309 168.651C70.6309 162.557 74.0066 160.988 76.9702 160.988C81.1964 160.988 84.514 164.39 84.514 169.873C84.5457 176.946 80.3723 177.778 78.5709 177.778H78.5551ZM102.74 178.41C102.74 178.584 102.528 178.658 102.211 178.658C100.589 178.658 98.9676 178.584 98.2703 178.584C97.573 178.584 96.0093 178.658 95.0531 178.658C94.6886 178.658 94.4826 178.61 94.4826 178.41C94.4826 178.21 94.6146 178.215 94.8999 178.215C95.2017 178.214 95.5026 178.182 95.798 178.12C96.3262 178.02 96.5428 177.483 96.6009 176.772C96.6749 175.745 96.6749 174.718 96.6749 174.323V172.322C96.7093 171.427 96.5013 170.539 96.0727 169.752C95.8878 169.357 92.4381 163.958 91.5401 162.705C91.0776 161.991 90.4713 161.382 89.7598 160.914C89.4338 160.736 89.0738 160.628 88.7032 160.598C88.5025 160.598 88.3229 160.546 88.3229 160.377C88.3229 160.209 88.5025 160.156 88.8089 160.156C89.2738 160.156 91.202 160.23 92.0525 160.23C92.5808 160.23 93.6373 160.156 94.8101 160.156C95.0689 160.156 95.1957 160.23 95.1957 160.377C95.1957 160.525 95.0161 160.546 94.6305 160.646C94.5279 160.666 94.4356 160.722 94.3692 160.802C94.3028 160.883 94.2663 160.984 94.266 161.088C94.3135 161.383 94.4194 161.666 94.5776 161.92C94.9369 162.652 98.545 168.551 98.9571 169.236C99.2159 168.651 102.46 163.263 102.819 162.505C103.031 162.113 103.156 161.68 103.183 161.236C103.19 161.085 103.139 160.938 103.041 160.824C102.943 160.71 102.805 160.636 102.655 160.619C102.423 160.572 102.19 160.525 102.19 160.377C102.19 160.23 102.317 160.156 102.629 160.156C103.479 160.156 104.303 160.23 105.048 160.23C105.619 160.23 107.314 160.156 107.806 160.156C108.091 160.156 108.265 160.203 108.265 160.351C108.265 160.498 108.065 160.598 107.779 160.598C107.385 160.617 106.998 160.716 106.643 160.888C106.09 161.171 105.614 161.583 105.254 162.089C103.451 164.584 101.796 167.183 100.299 169.873C99.9887 170.65 99.857 171.487 99.9132 172.322V174.323C99.9132 174.718 99.9132 175.745 99.9925 176.772C100.045 177.483 100.272 178.02 101.049 178.12C101.475 178.176 101.903 178.207 102.333 178.215C102.623 178.215 102.755 178.289 102.755 178.41H102.74ZM125.508 178.215C125.145 178.217 124.782 178.185 124.425 178.12C123.897 177.999 123.141 177.652 122.159 175.456C120.511 171.732 116.395 161.762 115.777 160.403C115.513 159.84 115.36 159.619 115.133 159.619C114.906 159.619 114.716 159.887 114.409 160.598L107.959 175.966C107.431 177.188 106.955 178.02 105.772 178.168C105.507 178.198 105.241 178.213 104.974 178.215C104.763 178.215 104.662 178.263 104.662 178.41C104.662 178.558 104.821 178.658 105.148 178.658C106.49 178.658 107.906 178.584 108.191 178.584C108.989 178.584 110.093 178.658 110.917 178.658C111.202 178.658 111.356 178.61 111.356 178.41C111.356 178.21 111.282 178.215 110.97 178.215H110.59C109.787 178.215 109.533 177.899 109.533 177.462C109.575 176.945 109.705 176.439 109.919 175.966L111.313 172.464C111.361 172.322 111.414 172.274 111.541 172.274H117.309C117.365 172.269 117.421 172.283 117.468 172.314C117.515 172.344 117.551 172.39 117.568 172.443L119.623 177.631C119.652 177.681 119.669 177.738 119.672 177.796C119.676 177.854 119.667 177.913 119.645 177.967C119.623 178.021 119.589 178.069 119.546 178.109C119.503 178.148 119.452 178.177 119.396 178.194C119.137 178.194 119.032 178.263 119.032 178.41C119.032 178.558 119.343 178.584 119.808 178.61C121.868 178.658 123.744 178.658 124.673 178.658C125.603 178.658 125.857 178.61 125.857 178.41C125.857 178.21 125.73 178.215 125.524 178.215H125.508ZM116.818 171.047H112.064C111.963 171.047 111.937 170.974 111.963 170.874L114.33 164.854C114.33 164.759 114.409 164.638 114.483 164.638C114.557 164.638 114.589 164.759 114.615 164.854L116.929 170.9C116.977 170.974 116.945 171.047 116.818 171.047ZM139.613 175.261C139.555 176.207 139.424 177.147 139.222 178.073C139.069 178.6 138.942 178.737 137.6 178.737C133.902 178.737 132.191 178.589 130.104 178.589C129.512 178.589 127.891 178.663 126.866 178.663C126.528 178.663 126.338 178.589 126.338 178.415C126.338 178.242 126.438 178.221 126.744 178.221C127.057 178.221 127.368 178.189 127.674 178.126C128.202 178.026 128.319 177.488 128.419 176.777C128.551 175.75 128.551 173.818 128.551 171.569V167.255C128.551 163.542 128.551 162.858 128.498 162.068C128.445 161.278 128.245 160.846 127.394 160.677C127.113 160.621 126.825 160.596 126.538 160.604C126.258 160.604 126.1 160.551 126.1 160.382C126.1 160.214 126.285 160.161 126.67 160.161C127.88 160.161 129.502 160.235 130.199 160.235C130.817 160.235 132.698 160.161 133.696 160.161C134.066 160.161 134.225 160.209 134.225 160.382C134.225 160.556 134.072 160.604 133.765 160.604C133.429 160.603 133.094 160.627 132.761 160.677C132.059 160.798 131.858 161.204 131.805 162.068C131.752 162.931 131.752 163.542 131.752 167.255V171.569C131.752 174.697 131.752 176.382 132.281 176.835C132.719 177.204 133.39 177.362 135.403 177.362C136.766 177.362 137.775 177.362 138.414 176.683C138.767 176.263 138.999 175.755 139.085 175.213C139.085 174.992 139.159 174.845 139.365 174.845C139.571 174.845 139.613 174.966 139.613 175.255V175.261ZM153 173.733C153.01 174.593 152.791 175.441 152.366 176.189C151.941 176.938 151.325 177.56 150.58 177.994C149.334 178.698 147.917 179.044 146.486 178.995C145.201 179.045 143.92 178.828 142.725 178.357C142.313 178.189 142.233 178.063 142.233 177.531C142.233 176.182 142.339 174.713 142.365 174.318C142.392 173.923 142.466 173.686 142.672 173.686C142.878 173.686 142.931 173.907 142.931 174.102C142.953 174.526 143.03 174.945 143.158 175.35C143.728 177.162 145.271 177.82 146.856 177.82C149.18 177.82 150.311 176.33 150.311 175.034C150.311 173.833 149.925 172.68 147.786 171.116L146.602 170.231C143.771 168.124 142.788 166.418 142.788 164.438C142.788 161.746 145.16 159.814 148.742 159.814C149.896 159.801 151.047 159.941 152.165 160.23C152.397 160.277 152.524 160.356 152.524 160.525C152.524 160.841 152.424 161.552 152.424 163.458C152.424 163.985 152.345 164.195 152.139 164.195C151.932 164.195 151.88 164.048 151.88 163.753C151.83 163.159 151.598 162.594 151.214 162.136C150.875 161.728 150.444 161.406 149.955 161.198C149.466 160.99 148.934 160.902 148.404 160.941C146.502 160.941 145.34 161.994 145.34 163.458C145.34 164.585 145.931 165.444 148.071 166.987L148.789 167.513C151.864 169.773 153 171.416 153 173.733ZM63.3671 133.069C64.3403 133.66 65.461 133.965 66.6002 133.949C69.3732 134.012 72.0957 133.203 74.3817 131.637C76.6405 130.04 78.5123 127.96 79.8599 125.549C80.7653 123.874 81.4558 122.092 81.9149 120.245C82.0839 119.61 82.496 117.714 83.1511 114.557C83.4882 112.741 83.9668 110.953 84.5827 109.211C85.2895 109.447 86.0091 109.642 86.738 109.796C87.4333 109.941 88.1409 110.019 88.8511 110.028C90.1586 110.109 91.4638 109.836 92.6283 109.238C93.1645 108.953 93.6103 108.524 93.9155 108C94.2207 107.477 94.3731 106.878 94.3558 106.273C94.3656 105.7 94.2189 105.135 93.9313 104.638C93.6438 104.142 93.2262 103.733 92.7234 103.455C91.7087 102.835 90.5379 102.515 89.3477 102.533C88.1219 102.513 86.9082 102.778 85.803 103.307C84.6597 103.833 83.6943 104.678 83.0243 105.741C80.6079 104.26 78.6368 102.156 77.3189 99.6524C75.6338 96.7435 74.7635 93.4366 74.799 90.0776C74.8519 85.1269 76.4261 81.0119 79.5218 77.7325C82.6175 74.4532 86.5496 72.8433 91.3182 72.903C93.2434 72.8927 95.1665 73.0282 97.0711 73.3085C96.4583 73.6245 95.8508 73.9756 95.2486 74.3619C93.4433 75.4188 91.8494 76.799 90.5469 78.433C89.1278 80.1867 88.3375 82.3631 88.3017 84.6161C88.2562 85.8714 88.6114 87.1087 89.316 88.15C89.6094 88.6072 90.0132 88.9837 90.4904 89.245C90.9675 89.5063 91.5028 89.6441 92.0472 89.6457C92.5135 89.6529 92.9761 89.5629 93.4055 89.3815C93.8349 89.2001 94.2215 88.9314 94.5407 88.5924C94.8797 88.2515 95.1477 87.847 95.329 87.4022C95.5104 86.9574 95.6015 86.4813 95.5972 86.0012C95.6512 85.2707 95.4658 84.5425 95.0689 83.9261C95.0003 83.7207 94.8999 83.6207 94.7573 83.6154C94.6146 83.6101 94.5195 83.7629 94.4456 84.0683C94.3687 84.6456 94.1369 85.1915 93.7747 85.6483C93.622 85.7912 93.4414 85.9009 93.2441 85.9707C93.0468 86.0405 92.8371 86.0688 92.6283 86.0539C92.3636 86.0525 92.105 85.974 91.8844 85.828C91.6639 85.6821 91.4909 85.475 91.3869 85.2323C91.0878 84.6499 90.9441 84.0006 90.9695 83.3468C90.9695 83.2467 90.9695 83.0466 91.0118 82.7411C91.0118 81.4087 91.688 80.0288 92.9823 78.591C93.6445 77.8887 94.3734 77.2519 95.1588 76.6897C95.117 76.7713 95.0953 76.8615 95.0953 76.9531C95.0953 77.0446 95.117 77.1349 95.1588 77.2164C95.6507 78.2145 96.0898 79.2376 96.4742 80.2816C96.6918 80.9003 96.8268 81.5448 96.8756 82.1987L96.5904 82.3672C96.3157 82.6411 96.173 82.8465 96.173 82.9729C96.173 83.0993 96.284 83.2573 96.5164 83.3626L96.9179 83.5627L96.5111 134.918C96.5111 135.403 96.1519 135.934 95.4546 136.498C94.5143 137.362 94.023 137.836 93.9754 137.915C93.9193 137.987 93.8829 138.072 93.8698 138.162C93.8464 138.23 93.8322 138.301 93.8275 138.373C93.8275 138.668 94.0335 138.815 94.4456 138.826C95.1331 138.839 95.8208 138.816 96.5059 138.757C97.2496 138.718 97.9884 138.614 98.714 138.447L99.5857 138.415C99.8498 138.415 100.156 138.447 100.484 138.473C101.192 138.641 101.913 138.75 102.639 138.8C103.321 138.878 104.007 138.922 104.694 138.931C105.111 138.931 105.323 138.784 105.323 138.494C105.332 138.424 105.332 138.353 105.323 138.283C105.304 138.193 105.268 138.107 105.217 138.031C104.756 137.522 104.269 137.037 103.759 136.577C103.067 135.982 102.703 135.434 102.729 134.95L103.136 83.5943L103.537 83.41C103.77 83.3099 103.891 83.1783 103.891 83.0308C103.891 82.8833 103.754 82.6937 103.479 82.4093L103.199 82.2355C103.26 81.5829 103.409 80.9415 103.643 80.329C103.97 79.4758 104.435 78.4646 105.027 77.2954C105.073 77.2153 105.098 77.1245 105.098 77.0321C105.098 76.9396 105.073 76.8488 105.027 76.7687C105.792 77.3476 106.5 77.9984 107.14 78.7121C108.408 80.1921 109.037 81.5877 109.015 82.9255C109.015 83.2257 109.047 83.4521 109.047 83.5364C109.058 84.1874 108.904 84.8307 108.598 85.4061C108.488 85.6466 108.31 85.8497 108.086 85.9901C107.861 86.1306 107.6 86.2022 107.335 86.1961C107.126 86.205 106.916 86.1703 106.721 86.0942C106.525 86.018 106.348 85.902 106.2 85.7537C105.848 85.2931 105.626 84.7479 105.555 84.1737C105.492 83.8735 105.386 83.7207 105.249 83.7102C105.111 83.6997 105.006 83.8155 104.937 84.0209C104.526 84.6265 104.325 85.35 104.367 86.0802C104.349 86.5633 104.428 87.045 104.6 87.4972C104.771 87.9493 105.031 88.3629 105.365 88.7135C105.679 89.0583 106.062 89.3348 106.488 89.526C106.914 89.7172 107.375 89.8189 107.843 89.8248C108.386 89.8379 108.923 89.7139 109.405 89.4644C109.887 89.2148 110.299 88.8479 110.6 88.3975C111.331 87.3748 111.714 86.1456 111.694 84.8899C111.703 82.6367 110.96 80.4445 109.581 78.6595C108.313 76.987 106.75 75.5592 104.969 74.4461C104.372 74.0564 103.77 73.7035 103.162 73.3928C105.08 73.1671 107.011 73.0826 108.941 73.14C113.724 73.2032 117.626 74.9149 120.648 78.275C123.67 81.6351 125.163 85.7905 125.128 90.7412C125.087 94.0869 124.148 97.3605 122.407 100.221C121.03 102.692 119.01 104.746 116.559 106.167C115.911 105.088 114.964 104.218 113.833 103.66C112.74 103.102 111.532 102.803 110.304 102.786C109.117 102.738 107.941 103.029 106.913 103.623C106.406 103.89 105.98 104.289 105.683 104.778C105.385 105.267 105.226 105.827 105.222 106.399C105.19 107.005 105.328 107.609 105.621 108.141C105.914 108.673 106.351 109.113 106.881 109.412C108.034 110.035 109.332 110.343 110.643 110.302C111.351 110.308 112.059 110.247 112.756 110.117C113.486 109.988 114.208 109.812 114.916 109.591C115.495 111.35 115.938 113.152 116.242 114.978C116.829 118.138 117.204 120.055 117.352 120.693C117.782 122.556 118.442 124.358 119.317 126.059C120.613 128.51 122.442 130.642 124.668 132.3C126.919 133.921 129.621 134.799 132.397 134.813C133.534 134.853 134.659 134.576 135.646 134.012C136.123 133.768 136.523 133.397 136.802 132.941C137.082 132.485 137.23 131.961 137.231 131.426C137.24 131.061 137.151 130.7 136.973 130.382C136.794 130.063 136.533 129.798 136.216 129.614C135.708 129.219 135.068 129.03 134.425 129.088C134.241 129.162 134.151 129.262 134.151 129.388C134.172 129.557 134.248 129.714 134.367 129.836C134.509 130.018 134.612 130.228 134.668 130.452C134.731 130.787 134.758 131.128 134.748 131.468C134.717 131.732 134.621 131.985 134.469 132.204C134.317 132.422 134.113 132.6 133.876 132.722C133.377 132.991 132.817 133.129 132.249 133.122C130.685 133.101 129.245 132.279 127.928 130.657C126.61 128.909 125.543 126.985 124.758 124.943C124.335 123.863 123.543 121.699 122.486 118.433C121.782 116.285 121.067 114.389 120.342 112.745C119.708 111.261 118.939 109.838 118.044 108.495C121.764 106.774 124.924 104.047 127.166 100.623C129.407 97.1994 130.639 93.2172 130.722 89.1296C130.798 86.6183 130.321 84.1208 129.325 81.8132C128.328 79.5055 126.836 77.4438 124.953 75.7733C121.196 72.3184 116.603 70.5628 111.176 70.5067C108.492 70.4238 105.806 70.6322 103.167 71.1281C102.142 71.3593 101.133 71.6567 100.146 72.0182C99.1639 71.6218 98.156 71.2927 97.1292 71.0333C94.5106 70.4648 91.8376 70.1822 89.1575 70.1907C83.7339 70.1204 79.1062 71.7724 75.2745 75.1466C73.3615 76.7662 71.8287 78.7849 70.7844 81.0601C69.7402 83.3352 69.2098 85.8113 69.231 88.3133C69.2316 92.4099 70.3804 96.4248 72.5479 99.9052C74.7153 103.386 77.8151 106.193 81.4976 108.011C80.5703 109.326 79.7708 110.726 79.1097 112.192C78.3596 113.82 77.6042 115.695 76.8434 117.833C75.6812 121.06 74.8642 123.207 74.3923 124.274C73.5762 126.295 72.477 128.191 71.1275 129.904C69.7786 131.488 68.3224 132.272 66.7587 132.258C66.2017 132.245 65.6569 132.093 65.1738 131.816C64.933 131.694 64.7265 131.514 64.5733 131.293C64.4201 131.071 64.3251 130.814 64.2969 130.547C64.2911 130.205 64.3248 129.864 64.3973 129.53C64.4581 129.309 64.5642 129.103 64.709 128.925C64.8265 128.802 64.907 128.648 64.9414 128.482C64.9414 128.356 64.8463 128.256 64.6667 128.171C64.0286 128.097 63.3859 128.268 62.8706 128.651C62.5489 128.825 62.2807 129.083 62.0946 129.398C61.9086 129.712 61.8116 130.071 61.814 130.436C61.8065 130.975 61.9473 131.505 62.2212 131.969C62.495 132.434 62.8914 132.814 63.3671 133.069ZM87.0656 105.156C87.7769 104.698 88.6066 104.456 89.4534 104.461C90.0607 104.465 90.6557 104.632 91.1756 104.945C91.4075 105.075 91.5991 105.267 91.7295 105.498C91.86 105.729 91.9242 105.992 91.9151 106.257C91.9195 106.583 91.8194 106.903 91.6295 107.169C91.4395 107.435 91.1695 107.634 90.8586 107.737C90.199 107.982 89.496 108.089 88.793 108.053C88.2029 108.038 87.6178 107.94 87.055 107.763C86.4848 107.614 85.9474 107.36 85.4702 107.015C85.7778 106.223 86.3508 105.56 87.092 105.14L87.0656 105.156ZM112.449 108.079C111.883 108.238 111.299 108.323 110.711 108.332C110.007 108.343 109.307 108.216 108.651 107.958C108.345 107.842 108.083 107.634 107.901 107.363C107.718 107.093 107.624 106.772 107.631 106.446C107.631 106.181 107.702 105.921 107.838 105.693C107.974 105.464 108.169 105.277 108.403 105.151C108.926 104.848 109.525 104.698 110.13 104.719C110.976 104.736 111.799 104.999 112.497 105.477C113.21 105.917 113.752 106.586 114.034 107.373C113.554 107.704 113.016 107.943 112.449 108.079ZM104.773 76.6423C104.68 76.6357 104.587 76.6483 104.499 76.6792C104.08 76.9644 103.683 77.2795 103.31 77.6219C102.305 78.5025 101.256 79.3322 100.167 80.1078L100.04 80.1868L99.9185 80.1025C98.8437 79.3006 97.8122 78.4427 96.8281 77.5324C96.4614 77.1834 96.0713 76.8596 95.6606 76.5633C95.5698 76.5283 95.4724 76.5139 95.3753 76.5212C95.8376 76.1798 96.3192 75.865 96.8175 75.5785C97.869 75.0037 98.9684 74.5209 100.103 74.1354C101.232 74.5518 102.323 75.0645 103.363 75.668C103.858 75.966 104.336 76.2913 104.794 76.6423H104.773ZM121.958 66.82C122.515 64.5249 123.713 62.434 125.413 60.7897C125.452 60.7922 125.491 60.7922 125.529 60.7897C125.799 60.7834 126.062 60.6976 126.283 60.543C126.504 60.3884 126.674 60.172 126.772 59.9211C126.87 59.6701 126.892 59.3959 126.834 59.1328C126.776 58.8698 126.641 58.6298 126.446 58.4431C126.251 58.2563 126.006 58.1312 125.74 58.0835C125.474 58.0358 125.2 58.0676 124.952 58.1749C124.704 58.2822 124.494 58.4603 124.348 58.6866C124.201 58.9129 124.125 59.1774 124.129 59.4467C124.133 59.6612 124.192 59.8713 124.298 60.0576C123.161 60.9728 121.745 61.4727 120.284 61.4743C119.467 61.4911 118.655 61.3471 117.894 61.0506C117.133 60.7541 116.438 60.3108 115.849 59.7463C115.261 59.1818 114.789 58.507 114.462 57.7606C114.135 57.0142 113.959 56.2109 113.944 55.3966C113.953 55.2025 113.972 55.0091 114.002 54.8173C114.242 54.7121 114.446 54.5405 114.59 54.3229C114.734 54.1053 114.813 53.8509 114.816 53.5901C114.816 53.2158 114.667 52.8568 114.401 52.5921C114.136 52.3274 113.776 52.1787 113.4 52.1787C113.025 52.1787 112.665 52.3274 112.399 52.5921C112.133 52.8568 111.984 53.2158 111.984 53.5901C111.991 53.8406 112.07 54.0838 112.211 54.2906C111.621 55.1421 110.832 55.8372 109.911 56.3154C108.991 56.7936 107.967 57.0404 106.929 57.0345C105.53 57.0407 104.169 56.58 103.063 55.7257C101.958 54.8715 101.17 53.6729 100.827 52.3209C100.96 52.1974 101.066 52.0482 101.138 51.8825C101.211 51.7167 101.249 51.5379 101.25 51.3571C101.228 50.9969 101.069 50.6588 100.805 50.4115C100.542 50.1643 100.193 50.0267 99.8313 50.0267C99.4695 50.0267 99.1212 50.1643 98.8576 50.4115C98.594 50.6588 98.435 50.9969 98.4129 51.3571C98.4151 51.6222 98.4946 51.8809 98.6419 52.1017C98.7892 52.3224 98.9979 52.4956 99.2423 52.6C98.843 53.8887 98.037 55.0144 96.9443 55.8096C95.8516 56.6048 94.5305 57.027 93.1777 57.0135C92.0734 57.0219 90.986 56.7425 90.0232 56.203C89.0605 55.6635 88.2558 54.8826 87.6889 53.9377C87.8433 53.728 87.93 53.4763 87.9372 53.2162C87.9152 52.8561 87.7561 52.5179 87.4926 52.2707C87.229 52.0235 86.8807 51.8858 86.5188 51.8858C86.1569 51.8858 85.8087 52.0235 85.5451 52.2707C85.2815 52.5179 85.1224 52.8561 85.1004 53.2162C85.1061 53.5182 85.2133 53.8095 85.4049 54.0435C85.5965 54.2775 85.8613 54.4405 86.1569 54.5065C86.2271 54.8535 86.266 55.206 86.2732 55.5599C86.2574 56.374 86.0808 57.177 85.7537 57.923C85.4265 58.6691 84.9551 59.3436 84.3664 59.908C83.7777 60.4724 83.0833 60.9156 82.3227 61.2124C81.5622 61.5092 80.7504 61.6537 79.9339 61.6376C78.2775 61.638 76.6861 60.9958 75.4963 59.8469C75.578 59.6393 75.6056 59.4145 75.5766 59.1934C75.5477 58.9723 75.4631 58.7621 75.3308 58.5824C75.1985 58.4026 75.0227 58.2591 74.8198 58.1653C74.6169 58.0715 74.3935 58.0304 74.1704 58.0457C73.9839 58.0342 73.797 58.0608 73.6213 58.124C73.4455 58.1872 73.2846 58.2856 73.1484 58.4131C73.0123 58.5407 72.9038 58.6947 72.8296 58.8656C72.7554 59.0366 72.7172 59.2209 72.7172 59.4072C72.7172 59.5934 72.7554 59.7777 72.8296 59.9487C72.9038 60.1196 73.0123 60.2737 73.1484 60.4012C73.2846 60.5288 73.4455 60.6272 73.6213 60.6903C73.797 60.7535 73.9839 60.7802 74.1704 60.7686C74.3769 60.7664 74.5806 60.7197 74.7673 60.6317C74.7722 60.6632 74.783 60.6936 74.799 60.7212C76.4919 62.3897 77.6282 64.5376 78.0532 66.8727C78.3015 66.7568 78.5815 66.6515 78.8456 66.5409C78.4071 66.7252 77.9581 66.9095 77.5513 67.1097C77.5513 67.1097 76.199 67.9892 77.0812 69.1531C77.2449 69.3265 77.4527 69.4523 77.6825 69.5172C77.9123 69.5821 78.1554 69.5837 78.386 69.5218C85.2826 66.9381 92.5934 65.6282 99.9608 65.6561C108.36 65.6561 115.92 67.0886 121.182 69.3427C121.492 69.4775 121.837 69.5098 122.167 69.4349C122.497 69.3601 122.794 69.182 123.015 68.9267C123.015 68.9267 123.749 68.0366 122.603 67.2677C122.162 66.9883 121.707 66.7316 121.24 66.4987C121.446 66.6041 121.673 66.6989 121.868 66.8147L121.958 66.82ZM115.355 64.3763C114.879 64.2604 114.383 64.1656 113.886 64.0655C114.399 64.1445 114.895 64.2393 115.371 64.3552L115.355 64.3763ZM112.602 63.818C112.074 63.7232 111.514 63.6547 110.965 63.5757C111.53 63.66 112.085 63.7021 112.618 63.7969L112.602 63.818ZM109.649 63.3967C109.074 63.3335 108.477 63.2861 107.885 63.2334C108.492 63.265 109.089 63.3124 109.665 63.3756L109.649 63.3967ZM103.31 62.9543C102.613 62.9543 101.9 62.9279 101.197 62.9174C101.884 62.9069 102.607 62.9121 103.305 62.9332L103.31 62.9543ZM106.554 63.1123C105.941 63.0701 105.307 63.0491 104.684 63.0175C105.302 63.028 105.936 63.0491 106.548 63.0912L106.554 63.1123ZM98.6295 62.9332C97.9903 62.9332 97.3511 62.9332 96.7277 62.9753C97.3511 62.9279 97.9903 62.9227 98.6295 62.9121V62.9332ZM95.2063 63.0754C94.6463 63.1123 94.0811 63.1439 93.5369 63.1913C94.0811 63.1333 94.6463 63.0912 95.2063 63.0543V63.0754ZM92.0525 63.3387C91.5242 63.4019 90.9959 63.4546 90.4677 63.5231C90.9907 63.4546 91.5242 63.4019 92.0525 63.3387ZM81.133 65.6982C80.7368 65.8351 80.3406 65.9668 79.9656 66.1143C80.3406 65.9668 80.7527 65.8351 81.133 65.6982ZM119.058 65.4981C119.444 65.6455 119.824 65.793 120.183 65.951C119.845 65.793 119.444 65.6455 119.058 65.4981ZM116.607 64.7133C117.045 64.8397 117.484 64.9609 117.906 65.0978C117.484 64.9345 117.045 64.8134 116.607 64.7133ZM69.9706 53.311C69.9706 53.153 70.0234 52.995 70.0551 52.837C69.785 52.82 69.5222 52.7425 69.2862 52.6103C69.0502 52.4781 68.8472 52.2945 68.6922 52.0733C68.5606 51.8877 68.4682 51.6773 68.4206 51.455C68.3729 51.2328 68.371 51.0031 68.415 50.7801C68.4589 50.5571 68.5478 50.3452 68.6763 50.1574C68.8048 49.9696 68.9701 49.8098 69.1623 49.6875C69.4381 49.5083 69.757 49.406 70.0858 49.3912C70.4147 49.3763 70.7415 49.4496 71.0324 49.6033C71.08 49.4927 71.1275 49.3768 71.1803 49.2609C70.8503 49.1136 70.575 48.8668 70.3932 48.5552C70.2799 48.3582 70.2078 48.1403 70.1811 47.9148C70.1544 47.6892 70.1737 47.4606 70.2379 47.2427C70.302 47.0248 70.4097 46.8221 70.5544 46.6467C70.6991 46.4713 70.8779 46.3269 71.08 46.2221C71.3524 46.0717 71.6587 45.9929 71.9701 45.9929C72.2815 45.9929 72.5878 46.0717 72.8603 46.2221L73.1085 45.8692C72.856 45.7098 72.6487 45.4886 72.5063 45.2267C72.4117 45.0198 72.36 44.796 72.3542 44.5688C72.3483 44.3415 72.3885 44.1154 72.4724 43.904C72.5562 43.6926 72.682 43.5002 72.8421 43.3383C73.0022 43.1765 73.1935 43.0485 73.4044 42.962C73.7265 42.8232 74.0817 42.7792 74.428 42.8352C74.7744 42.8912 75.0974 43.0449 75.359 43.278L75.6654 42.9725C75.4415 42.7808 75.2721 42.5338 75.1741 42.2563C75.0995 42.0407 75.0691 41.8123 75.0847 41.5847C75.1004 41.3572 75.1618 41.1351 75.2653 40.9317C75.3688 40.7283 75.5123 40.5477 75.6872 40.4007C75.8621 40.2536 76.0649 40.1432 76.2835 40.0759C76.6518 39.9539 77.0494 39.952 77.4189 40.0703C77.7883 40.1887 78.1104 40.4212 78.3385 40.7342C78.4494 40.6499 78.5656 40.5709 78.6818 40.4919C78.5378 40.3093 78.4318 40.0998 78.3702 39.8757C78.3129 39.6526 78.3012 39.4202 78.3357 39.1925C78.3701 38.9647 78.45 38.7461 78.5707 38.5497C78.6914 38.3533 78.8504 38.183 79.0382 38.0489C79.2261 37.9148 79.439 37.8197 79.6644 37.7691C80.0498 37.6725 80.4564 37.7053 80.8213 37.8624C81.1861 38.0195 81.4888 38.2921 81.6824 38.6381L82.0205 38.4643C81.9115 38.276 81.8397 38.0686 81.8092 37.8533C81.7733 37.6276 81.7828 37.397 81.8372 37.175C81.8915 36.953 81.9897 36.744 82.1259 36.5602C82.2621 36.3764 82.4336 36.2214 82.6305 36.1043C82.8273 35.9873 83.0456 35.9105 83.2726 35.8783C83.6896 35.8067 84.1186 35.8842 84.484 36.0972C84.8493 36.3101 85.1275 36.6448 85.2694 37.0423L85.6656 36.9001C85.6028 36.7453 85.5636 36.5819 85.5494 36.4155C85.5322 36.1872 85.5609 35.9577 85.6337 35.7405C85.7065 35.5233 85.8221 35.3227 85.9736 35.1506C86.1251 34.9785 86.3095 34.8382 86.5161 34.738C86.7226 34.6377 86.9472 34.5796 87.1765 34.5669C87.597 34.531 88.0166 34.646 88.3595 34.8913C88.7024 35.1366 88.9461 35.496 89.0466 35.9047L89.6277 35.773C89.5722 35.5355 89.5664 35.2892 89.6106 35.0493C89.6548 34.8095 89.7482 34.5814 89.8848 34.3791C90.0214 34.1768 90.1983 34.0048 90.4045 33.8737C90.6108 33.7426 90.8419 33.6553 91.0835 33.6172C91.3251 33.5791 91.572 33.5911 91.8087 33.6523C92.0455 33.7135 92.267 33.8228 92.4595 33.9732C92.6521 34.1236 92.8115 34.3119 92.9278 34.5264C93.044 34.7409 93.1148 34.977 93.1355 35.22C93.1355 35.22 93.0932 35.9363 94.2448 35.9363H105.582C106.733 35.9363 106.691 35.22 106.691 35.22C106.748 34.7757 106.971 34.3691 107.314 34.0807C107.658 33.7924 108.098 33.6433 108.547 33.6632C108.996 33.6831 109.421 33.8704 109.737 34.1881C110.054 34.5057 110.24 34.9304 110.257 35.378C110.257 35.5187 110.237 35.6587 110.199 35.7941L110.785 35.9257C110.888 35.5161 111.135 35.1569 111.481 34.9134C111.827 34.6698 112.249 34.5581 112.671 34.5985C112.9 34.6119 113.125 34.6705 113.331 34.7709C113.538 34.8713 113.722 35.0115 113.874 35.1834C114.026 35.3553 114.142 35.5555 114.216 35.7724C114.289 35.9893 114.319 36.2186 114.303 36.4471C114.287 36.6138 114.246 36.7771 114.182 36.9317L114.583 37.0739C114.725 36.6775 115.003 36.3435 115.367 36.1307C115.731 35.9178 116.159 35.8397 116.575 35.9099C116.8 35.9403 117.017 36.0148 117.213 36.1291C117.409 36.2434 117.581 36.3952 117.718 36.5758C117.855 36.7565 117.954 36.9623 118.011 37.1816C118.068 37.4008 118.081 37.6291 118.049 37.8533C118.014 38.0672 117.934 38.2716 117.816 38.4537L118.155 38.6275C118.349 38.2812 118.653 38.0083 119.019 37.8513C119.384 37.6942 119.792 37.6616 120.178 37.7585C120.404 37.8084 120.617 37.9031 120.805 38.0371C120.993 38.1711 121.152 38.3416 121.272 38.5383C121.393 38.735 121.472 38.9539 121.505 39.182C121.539 39.41 121.526 39.6424 121.467 39.8652C121.407 40.0889 121.303 40.2985 121.16 40.4814C121.277 40.5604 121.393 40.6394 121.499 40.7237C121.728 40.4102 122.051 40.1775 122.421 40.0592C122.791 39.9408 123.19 39.943 123.559 40.0653C123.777 40.1332 123.979 40.244 124.154 40.3913C124.328 40.5386 124.471 40.7192 124.574 40.9226C124.677 41.1259 124.738 41.3478 124.753 41.5751C124.768 41.8024 124.738 42.0305 124.663 42.2457C124.565 42.5233 124.395 42.7703 124.172 42.962C124.277 43.0621 124.383 43.1621 124.483 43.2675C124.744 43.0342 125.066 42.8804 125.411 42.8244C125.757 42.7684 126.111 42.8125 126.433 42.9515C126.644 43.0373 126.836 43.165 126.996 43.3267C127.157 43.4885 127.283 43.681 127.367 43.8926C127.451 44.1042 127.491 44.3306 127.485 44.558C127.478 44.7855 127.426 45.0094 127.331 45.2161C127.19 45.4983 126.977 45.7382 126.713 45.9113C126.797 46.0272 126.882 46.1431 126.961 46.2642C127.233 46.1139 127.54 46.035 127.851 46.035C128.162 46.035 128.469 46.1139 128.741 46.2642C128.944 46.3684 129.123 46.5126 129.268 46.6879C129.413 46.8632 129.521 47.0661 129.586 47.2842C129.65 47.5023 129.669 47.7312 129.642 47.9569C129.615 48.1826 129.542 48.4005 129.428 48.5973C129.247 48.9074 128.974 49.1539 128.646 49.3031L128.789 49.6454C129.08 49.4917 129.406 49.4185 129.735 49.4333C130.064 49.4481 130.383 49.5505 130.659 49.7297C130.852 49.8514 131.018 50.011 131.146 50.1988C131.275 50.3865 131.365 50.5985 131.409 50.8218C131.453 51.045 131.45 51.2749 131.402 51.4973C131.354 51.7197 131.261 51.9301 131.129 52.1155C130.972 52.3333 130.768 52.5132 130.532 52.6417C130.297 52.7703 130.035 52.8442 129.766 52.8581C129.798 53.0161 129.824 53.1741 129.856 53.3321C130.242 53.3464 130.612 53.485 130.912 53.7271C131.091 53.8674 131.239 54.0425 131.347 54.2416C131.456 54.4408 131.522 54.6599 131.543 54.8856C131.564 55.1113 131.538 55.3388 131.468 55.5543C131.398 55.7699 131.284 55.9689 131.134 56.1392C130.861 56.4509 130.488 56.6577 130.078 56.7238H123.654L113.791 49.3873C113.545 49.3611 113.309 49.2742 113.104 49.1345C109.744 46.7171 107.119 46.6171 107.119 46.6171C106.784 46.5186 106.5 46.2964 106.324 45.9958C106.148 45.6953 106.094 45.3391 106.173 45.0002V43.7415L103.183 41.54C103.247 41.6274 103.282 41.7322 103.284 41.8402V42.7882C103.293 42.8495 103.289 42.912 103.273 42.972C103.257 43.0319 103.23 43.0881 103.192 43.1372C103.154 43.1863 103.107 43.2273 103.052 43.2579C102.998 43.2884 102.939 43.3078 102.877 43.3149H97.1715C97.1097 43.3078 97.05 43.2884 96.9959 43.2579C96.9418 43.2273 96.8944 43.1863 96.8565 43.1372C96.8186 43.0881 96.7909 43.0319 96.7751 42.972C96.7594 42.912 96.7558 42.8495 96.7647 42.7882V41.8402C96.7558 41.7789 96.7594 41.7164 96.7751 41.6564C96.7909 41.5965 96.8186 41.5403 96.8565 41.4912C96.8944 41.4421 96.9418 41.4011 96.9959 41.3705C97.05 41.34 97.1097 41.3206 97.1715 41.3135H102.877C102.919 41.3135 102.94 41.3504 102.977 41.3662L102.75 41.1977H97.087L94.1445 43.3781V44.9897C94.2234 45.3286 94.1695 45.6847 93.9937 45.9853C93.8179 46.2858 93.5336 46.5081 93.1989 46.6065C93.1989 46.6065 90.5575 46.7066 87.2135 49.124C87.2135 49.124 86.5003 49.6085 86.252 49.2293L76.1831 56.7027H69.7593C69.3498 56.6358 68.9763 56.4291 68.7027 56.1181C68.5535 55.9475 68.4406 55.7484 68.3707 55.533C68.3008 55.3175 68.2755 55.0902 68.2962 54.8648C68.317 54.6393 68.3833 54.4204 68.4913 54.2212C68.5993 54.022 68.7467 53.8468 68.9246 53.706C69.222 53.4664 69.5886 53.328 69.9706 53.311ZM99.7706 26.688C99.6187 26.6867 99.4732 26.6267 99.3649 26.5206C99.2565 26.4145 99.1936 26.2706 99.1895 26.1192V25.6294C99.1936 25.478 99.2565 25.3341 99.3649 25.228C99.4732 25.1219 99.6187 25.0619 99.7706 25.0606H100.299C100.454 25.0577 100.604 25.1158 100.717 25.2222C100.829 25.3285 100.896 25.4748 100.901 25.6294V26.1192C100.896 26.2738 100.829 26.4201 100.717 26.5264C100.604 26.6328 100.454 26.6909 100.299 26.688H99.7706ZM95.0848 29.5583L95.0478 22.1323C95.0478 22.1323 95.164 21.3687 95.8032 21.9533L98.8937 25.266C99.0105 25.4282 99.0666 25.6262 99.0522 25.8254C99.0377 26.0246 98.9535 26.2125 98.8144 26.3562L95.8191 29.6689C95.8191 29.6689 95.1799 30.1429 95.1006 29.5583H95.0848ZM101.197 25.266L104.266 21.9533C104.911 21.3687 105.022 22.1323 105.022 22.1323L104.99 29.5583C104.911 30.1429 104.266 29.6689 104.266 29.6689L101.271 26.3562C101.133 26.2113 101.051 26.0233 101.037 25.8243C101.024 25.6254 101.08 25.428 101.197 25.266ZM96.004 21.7268C96.004 21.7268 95.5127 21.1106 96.1149 21.0369L103.844 21C103.844 21 104.641 21.1106 104.034 21.7268L100.584 24.6867C100.413 24.7997 100.21 24.8542 100.005 24.8418C99.7999 24.8295 99.6046 24.751 99.4483 24.6182L96.004 21.7268ZM103.844 30.5643L96.1149 30.5327C95.5127 30.4589 96.004 29.8375 96.004 29.8375L99.4483 26.9671C99.6034 26.8328 99.7981 26.7524 100.003 26.7381C100.208 26.7239 100.412 26.7765 100.584 26.8881L104.034 29.8375C104.641 30.48 103.844 30.5643 103.844 30.5643ZM101.44 31.0119C101.517 31.0105 101.593 31.0243 101.665 31.0524C101.737 31.0805 101.802 31.1224 101.858 31.1757C101.913 31.229 101.957 31.2927 101.988 31.3631C102.019 31.4335 102.036 31.5092 102.037 31.586V33.7295C102.036 33.8061 102.019 33.8816 101.988 33.9517C101.957 34.0218 101.913 34.0851 101.857 34.138C101.802 34.1909 101.736 34.2323 101.665 34.2598C101.593 34.2873 101.517 34.3004 101.44 34.2983H98.4499C98.2953 34.3012 98.1458 34.243 98.034 34.1365C97.9222 34.0299 97.8571 33.8837 97.853 33.7295V31.586C97.8536 31.5088 97.8697 31.4325 97.9001 31.3614C97.9305 31.2904 97.9748 31.2261 98.0303 31.1723C98.0858 31.1184 98.1515 31.076 98.2235 31.0476C98.2955 31.0192 98.3725 31.0053 98.4499 31.0067L101.44 31.0119ZM102.787 46.1062H97.2613C97.05 46.1062 96.8756 45.7902 96.8756 45.4057V44.0785C96.8756 43.6888 97.05 43.3728 97.2613 43.3728H102.787C102.998 43.3728 103.178 43.6888 103.178 44.0785V45.4057C103.178 45.7902 102.998 46.1062 102.787 46.1062ZM102.861 46.7856V47.9232C102.861 48.2603 102.703 48.5289 102.512 48.5289H97.5413C97.3458 48.5289 97.1926 48.2603 97.1926 47.9232V46.8067C97.1926 46.4749 97.3458 46.201 97.5413 46.201H102.512C102.703 46.1799 102.861 46.4538 102.861 46.8067V46.7856Z" fill="white"/>
</g>
<defs>
<clipPath id="clip0_19_2">
<rect width="105" height="158" fill="white" transform="translate(48 21)"/>
</clipPath>
</defs>
</svg>
